<svg width="270" height="48" viewBox="0 19 608 110" fill="currentColor" xmlns="http://www.w3.org/2000/svg"
     class="w-36 h-8 md:w-44 md:h-12 fill-primary-white">
    <path d="M24.67 102.604V78.252L.915 42.792h7.69l19.567 29.65 19.481-29.65h7.434L31.248 78.51v24.095H24.67Zm25.349 0 24.779-59.811h7.946l24.609 59.811h-7.178l-7.519-18.797H64.459l-7.605 18.797H50.02Zm16.747-24.437h23.583L78.558 48.86 66.766 78.167Zm77.803 25.377c-4.329 0-8.374-.769-12.133-2.307-3.76-1.595-7.064-3.788-9.912-6.579a31.27 31.27 0 0 1-6.665-9.826c-1.538-3.76-2.307-7.804-2.307-12.133 0-4.33.769-8.346 2.307-12.048 1.595-3.76 3.817-7.035 6.665-9.827a29.86 29.86 0 0 1 9.912-6.579c3.759-1.595 7.804-2.392 12.133-2.392 3.133 0 6.123.398 8.972 1.196 2.905.74 5.582 1.851 8.031 3.332a27.321 27.321 0 0 1 6.665 5.298l-4.358 4.614c-2.335-2.677-5.212-4.728-8.63-6.152a26.586 26.586 0 0 0-10.68-2.222c-3.475 0-6.693.627-9.656 1.88a23.568 23.568 0 0 0-7.775 5.298c-2.165 2.221-3.874 4.842-5.127 7.86-1.196 2.963-1.794 6.21-1.794 9.742 0 3.474.598 6.721 1.794 9.74 1.253 3.02 2.991 5.668 5.212 7.947 2.222 2.221 4.814 3.959 7.776 5.212 3.019 1.253 6.266 1.88 9.741 1.88 3.702 0 7.234-.712 10.595-2.136 3.361-1.481 6.18-3.504 8.459-6.067l4.272 4.443a32.21 32.21 0 0 1-6.75 5.298 31.906 31.906 0 0 1-7.946 3.418 34.855 34.855 0 0 1-8.801 1.11Zm38.594-.94V42.793h6.579v26.744h34.776V42.793h6.58v59.811h-6.58V75.433h-34.776v27.171h-6.579Zm82.698 0V48.688h-21.618v-5.895h49.815v5.895H272.44v53.916h-6.579ZM330.935 102.604l-15.893-59.811h3.931l14.013 53.318 15.722-53.318h3.93l15.466 53.574 14.099-53.574h3.759l-15.978 59.811h-3.76l-15.636-54.087-15.893 54.087h-3.76Zm58.871 0 24.95-59.811h4.87l24.865 59.811h-4.272l-8.288-20.25h-29.65l-8.374 20.25h-4.101Zm13.927-23.753h26.745l-13.33-32.384-13.415 32.384Zm60.67 23.753v-24.95l-23.412-34.861h4.7l20.763 31.273 20.849-31.273h4.528l-23.497 35.032v24.779h-3.931Z"></path>
    <path fill-rule="evenodd" clip-rule="evenodd"
          d="M307.564 124.364h296.812c3.37 0 3.37-.01 3.37-3.262V26.581c0-.414.005-.776.01-1.093.016-1.14.024-1.698-.251-1.966-.264-.258-.788-.247-1.817-.227-.329.006-.709.013-1.148.013H462.855l-155.291.01v4.085c59.345.068 135.883.066 194.059-.007 2.632-.01 3.267.714 3.267 3.262-.061 28.718-.061 57.425-.061 86.132v1.274c.071 1.407-.543 1.988-1.977 1.927-1.25-.041-2.499-.027-3.749-.014-.625.007-1.249.014-1.874.014-56.707-.039-131.733-.041-189.665-.004v4.377Zm268.284-42.178c2.684-3.935 3.933-8.41 3.933-15.149.113-11.703-11.512-23.406-26.057-22.815-15.589.633-27.327 15.975-23.096 30.89 4.701 16.697 23.066 23.772 37.897 14.526 1.547-.958 2.356-.602 3.452.51a543.793 543.793 0 0 0 5.382 5.358h.001l.002.003.001.001c2.612 2.576 5.223 5.152 7.755 7.799 1.598 1.651 2.581.958 3.646-.255.193-.22.408-.425.619-.627.956-.913 1.823-1.741.078-3.37-2.466-2.307-4.85-4.698-7.234-7.09h-.001c-1.934-1.94-3.868-3.88-5.845-5.775-1.373-1.325-1.731-2.242-.533-4.006Zm-36.75-23.76a18.8 18.8 0 0 0-3.205 10.476 18.728 18.728 0 0 0 5.525 13.384 18.89 18.89 0 0 0 6.168 4.093 18.957 18.957 0 0 0 7.276 1.413 19.024 19.024 0 0 0 10.529-3.183 18.888 18.888 0 0 0 6.978-8.468 18.787 18.787 0 0 0 1.078-10.898 18.84 18.84 0 0 0-5.185-9.66 18.987 18.987 0 0 0-9.702-5.166 19.043 19.043 0 0 0-10.951 1.067 18.94 18.94 0 0 0-8.511 6.941Z"></path>
</svg>